<mxfile host="app.diagrams.net" modified="2023-08-27T20:56:27.863Z" agent="Mozilla/5.0 (Windows NT 10.0; Win64; x64) AppleWebKit/537.36 (KHTML, like Gecko) Chrome/115.0.0.0 Safari/537.36" etag="E7mZtDuSzjE-H-FvaMrb" version="21.6.9" type="device">
  <diagram name="PÃ¡gina-1" id="7u4M7-F42kDg_C-nJhqs">
    <mxGraphModel dx="1050" dy="542" grid="1" gridSize="10" guides="1" tooltips="1" connect="1" arrows="1" fold="1" page="1" pageScale="1" pageWidth="1169" pageHeight="827" math="0" shadow="0">
      <root>
        <mxCell id="0" />
        <mxCell id="1" parent="0" />
        <mxCell id="wo4oZ_ekLijNpUrrW5UK-1" value="Author" style="shape=umlActor;verticalLabelPosition=bottom;verticalAlign=top;html=1;outlineConnect=0;" vertex="1" parent="1">
          <mxGeometry x="60" y="360" width="50" height="80" as="geometry" />
        </mxCell>
        <mxCell id="wo4oZ_ekLijNpUrrW5UK-11" value="Follower" style="shape=umlActor;verticalLabelPosition=bottom;verticalAlign=top;html=1;outlineConnect=0;" vertex="1" parent="1">
          <mxGeometry x="840" y="358" width="50" height="80" as="geometry" />
        </mxCell>
        <mxCell id="wo4oZ_ekLijNpUrrW5UK-17" value="" style="endArrow=none;html=1;rounded=0;" edge="1" parent="1">
          <mxGeometry width="50" height="50" relative="1" as="geometry">
            <mxPoint x="110" y="414" as="sourcePoint" />
            <mxPoint x="180" y="414" as="targetPoint" />
          </mxGeometry>
        </mxCell>
        <mxCell id="wo4oZ_ekLijNpUrrW5UK-18" value="" style="endArrow=none;html=1;rounded=0;" edge="1" parent="1">
          <mxGeometry width="50" height="50" relative="1" as="geometry">
            <mxPoint x="180" y="414" as="sourcePoint" />
            <mxPoint x="180" y="280" as="targetPoint" />
          </mxGeometry>
        </mxCell>
        <mxCell id="wo4oZ_ekLijNpUrrW5UK-20" value="" style="endArrow=none;html=1;rounded=0;entryX=0;entryY=0.5;entryDx=0;entryDy=0;" edge="1" parent="1" target="wo4oZ_ekLijNpUrrW5UK-22">
          <mxGeometry width="50" height="50" relative="1" as="geometry">
            <mxPoint x="180" y="280" as="sourcePoint" />
            <mxPoint x="250" y="280" as="targetPoint" />
          </mxGeometry>
        </mxCell>
        <mxCell id="wo4oZ_ekLijNpUrrW5UK-22" value="Write a tweet" style="ellipse;whiteSpace=wrap;html=1;" vertex="1" parent="1">
          <mxGeometry x="260" y="240" width="120" height="80" as="geometry" />
        </mxCell>
        <mxCell id="wo4oZ_ekLijNpUrrW5UK-23" value="Twitter" style="text;strokeColor=none;fillColor=none;html=1;fontSize=24;fontStyle=1;verticalAlign=middle;align=center;" vertex="1" parent="1">
          <mxGeometry x="440" y="60" width="100" height="40" as="geometry" />
        </mxCell>
        <mxCell id="wo4oZ_ekLijNpUrrW5UK-25" value="Attach image to post" style="ellipse;whiteSpace=wrap;html=1;" vertex="1" parent="1">
          <mxGeometry x="550" y="120" width="120" height="80" as="geometry" />
        </mxCell>
        <mxCell id="wo4oZ_ekLijNpUrrW5UK-26" value="&amp;lt;&amp;lt;extend&amp;gt;&amp;gt;" style="html=1;verticalAlign=bottom;labelBackgroundColor=none;endArrow=open;endFill=0;dashed=1;rounded=0;" edge="1" parent="1">
          <mxGeometry width="160" relative="1" as="geometry">
            <mxPoint x="320" y="160" as="sourcePoint" />
            <mxPoint x="540" y="159.5" as="targetPoint" />
          </mxGeometry>
        </mxCell>
        <mxCell id="wo4oZ_ekLijNpUrrW5UK-29" value="" style="endArrow=none;dashed=1;html=1;rounded=0;" edge="1" parent="1">
          <mxGeometry width="50" height="50" relative="1" as="geometry">
            <mxPoint x="319.5" y="240" as="sourcePoint" />
            <mxPoint x="319.5" y="160" as="targetPoint" />
          </mxGeometry>
        </mxCell>
        <mxCell id="wo4oZ_ekLijNpUrrW5UK-30" value="Retweet" style="ellipse;whiteSpace=wrap;html=1;" vertex="1" parent="1">
          <mxGeometry x="480" y="438" width="120" height="80" as="geometry" />
        </mxCell>
        <mxCell id="wo4oZ_ekLijNpUrrW5UK-31" value="Like" style="ellipse;whiteSpace=wrap;html=1;" vertex="1" parent="1">
          <mxGeometry x="480" y="558" width="120" height="80" as="geometry" />
        </mxCell>
        <mxCell id="wo4oZ_ekLijNpUrrW5UK-32" value="Message" style="ellipse;whiteSpace=wrap;html=1;" vertex="1" parent="1">
          <mxGeometry x="480" y="678" width="120" height="80" as="geometry" />
        </mxCell>
        <mxCell id="wo4oZ_ekLijNpUrrW5UK-33" value="" style="endArrow=none;html=1;rounded=0;" edge="1" parent="1">
          <mxGeometry width="50" height="50" relative="1" as="geometry">
            <mxPoint x="380" y="280" as="sourcePoint" />
            <mxPoint x="720" y="280" as="targetPoint" />
          </mxGeometry>
        </mxCell>
        <mxCell id="wo4oZ_ekLijNpUrrW5UK-34" value="" style="endArrow=none;html=1;rounded=0;" edge="1" parent="1">
          <mxGeometry width="50" height="50" relative="1" as="geometry">
            <mxPoint x="720" y="720" as="sourcePoint" />
            <mxPoint x="720" y="280" as="targetPoint" />
          </mxGeometry>
        </mxCell>
        <mxCell id="wo4oZ_ekLijNpUrrW5UK-37" value="" style="endArrow=none;html=1;rounded=0;exitX=1;exitY=0.5;exitDx=0;exitDy=0;" edge="1" parent="1" source="wo4oZ_ekLijNpUrrW5UK-30">
          <mxGeometry width="50" height="50" relative="1" as="geometry">
            <mxPoint x="610" y="477.5" as="sourcePoint" />
            <mxPoint x="720" y="478" as="targetPoint" />
          </mxGeometry>
        </mxCell>
        <mxCell id="wo4oZ_ekLijNpUrrW5UK-38" value="" style="endArrow=none;html=1;rounded=0;exitX=1;exitY=0.5;exitDx=0;exitDy=0;" edge="1" parent="1">
          <mxGeometry width="50" height="50" relative="1" as="geometry">
            <mxPoint x="600" y="597.5" as="sourcePoint" />
            <mxPoint x="720" y="597.5" as="targetPoint" />
          </mxGeometry>
        </mxCell>
        <mxCell id="wo4oZ_ekLijNpUrrW5UK-39" value="" style="endArrow=none;html=1;rounded=0;exitX=1;exitY=0.5;exitDx=0;exitDy=0;" edge="1" parent="1">
          <mxGeometry width="50" height="50" relative="1" as="geometry">
            <mxPoint x="600" y="718" as="sourcePoint" />
            <mxPoint x="720" y="718" as="targetPoint" />
          </mxGeometry>
        </mxCell>
        <mxCell id="wo4oZ_ekLijNpUrrW5UK-40" value="&amp;lt;&amp;lt;include&amp;gt;&amp;gt;" style="html=1;verticalAlign=bottom;labelBackgroundColor=none;endArrow=none;endFill=0;dashed=1;rounded=0;exitX=0.5;exitY=1;exitDx=0;exitDy=0;" edge="1" parent="1" source="wo4oZ_ekLijNpUrrW5UK-22">
          <mxGeometry width="160" relative="1" as="geometry">
            <mxPoint x="319.5" y="330" as="sourcePoint" />
            <mxPoint x="320" y="720" as="targetPoint" />
          </mxGeometry>
        </mxCell>
        <mxCell id="wo4oZ_ekLijNpUrrW5UK-41" value="" style="endArrow=open;dashed=1;html=1;dashPattern=1 3;strokeWidth=2;rounded=0;endFill=0;entryX=0;entryY=0.5;entryDx=0;entryDy=0;" edge="1" parent="1" target="wo4oZ_ekLijNpUrrW5UK-30">
          <mxGeometry width="50" height="50" relative="1" as="geometry">
            <mxPoint x="320" y="478" as="sourcePoint" />
            <mxPoint x="470" y="478" as="targetPoint" />
          </mxGeometry>
        </mxCell>
        <mxCell id="wo4oZ_ekLijNpUrrW5UK-42" value="" style="endArrow=open;dashed=1;html=1;dashPattern=1 3;strokeWidth=2;rounded=0;endFill=0;entryX=0;entryY=0.5;entryDx=0;entryDy=0;" edge="1" parent="1">
          <mxGeometry width="50" height="50" relative="1" as="geometry">
            <mxPoint x="320" y="597.5" as="sourcePoint" />
            <mxPoint x="480" y="597.5" as="targetPoint" />
          </mxGeometry>
        </mxCell>
        <mxCell id="wo4oZ_ekLijNpUrrW5UK-43" value="" style="endArrow=open;dashed=1;html=1;dashPattern=1 3;strokeWidth=2;rounded=0;endFill=0;entryX=0;entryY=0.5;entryDx=0;entryDy=0;" edge="1" parent="1">
          <mxGeometry width="50" height="50" relative="1" as="geometry">
            <mxPoint x="320" y="717.5" as="sourcePoint" />
            <mxPoint x="480" y="717.5" as="targetPoint" />
          </mxGeometry>
        </mxCell>
        <mxCell id="wo4oZ_ekLijNpUrrW5UK-46" value="" style="endArrow=none;html=1;rounded=0;exitX=1;exitY=0.5;exitDx=0;exitDy=0;" edge="1" parent="1">
          <mxGeometry width="50" height="50" relative="1" as="geometry">
            <mxPoint x="720" y="414" as="sourcePoint" />
            <mxPoint x="840" y="414" as="targetPoint" />
          </mxGeometry>
        </mxCell>
        <mxCell id="wo4oZ_ekLijNpUrrW5UK-47" value="" style="endArrow=none;html=1;rounded=0;" edge="1" parent="1">
          <mxGeometry width="50" height="50" relative="1" as="geometry">
            <mxPoint x="220" y="40" as="sourcePoint" />
            <mxPoint x="760" y="40" as="targetPoint" />
          </mxGeometry>
        </mxCell>
        <mxCell id="wo4oZ_ekLijNpUrrW5UK-48" value="" style="endArrow=none;html=1;rounded=0;" edge="1" parent="1">
          <mxGeometry width="50" height="50" relative="1" as="geometry">
            <mxPoint x="760" y="770" as="sourcePoint" />
            <mxPoint x="760" y="40" as="targetPoint" />
          </mxGeometry>
        </mxCell>
        <mxCell id="wo4oZ_ekLijNpUrrW5UK-49" value="" style="endArrow=none;html=1;rounded=0;" edge="1" parent="1">
          <mxGeometry width="50" height="50" relative="1" as="geometry">
            <mxPoint x="220" y="770" as="sourcePoint" />
            <mxPoint x="220" y="40" as="targetPoint" />
          </mxGeometry>
        </mxCell>
        <mxCell id="wo4oZ_ekLijNpUrrW5UK-50" value="" style="endArrow=none;html=1;rounded=0;" edge="1" parent="1">
          <mxGeometry width="50" height="50" relative="1" as="geometry">
            <mxPoint x="220" y="770" as="sourcePoint" />
            <mxPoint x="760" y="770" as="targetPoint" />
          </mxGeometry>
        </mxCell>
      </root>
    </mxGraphModel>
  </diagram>
</mxfile>
